HIERARCHY
ROOT hip
{
	OFFSET	0.00  0.00  0.00 
	CHANNELS 6 Xposition Yposition Zposition Xrotation Zrotation Yrotation
	JOINT abdomen
	{
		OFFSET	0.000000 0.000000 0.000000
		CHANNELS 3 Xrotation Zrotation Yrotation
		JOINT chest
		{
			OFFSET	0.000000 5.018152 -1.882228
			CHANNELS 3 Xrotation Zrotation Yrotation
			JOINT neckDummy
			{
				OFFSET	0.000000 8.316447 0.784897
				CHANNELS 3 Xrotation Yrotation Zrotation
				JOINT neck
				{
					OFFSET	0.000000 2.280413 -0.392801
					CHANNELS 3 Xrotation Zrotation Yrotation
					JOINT head
					{
						OFFSET	0.000000 3.496879 0.529469
						CHANNELS 3 Xrotation Zrotation Yrotation
						JOINT figureHair
						{
							OFFSET	0.000000 4.699570 0.720622
							CHANNELS 3 Zrotation Yrotation Xrotation
							End Site
							{
								OFFSET 0.000000 -6.419331 0.000000
							}
						}
					}
				}
			}
			JOINT lCollar
			{
				OFFSET	0.599237 8.316447 0.784897
				CHANNELS 3 Yrotation Zrotation Xrotation
				JOINT lShldr
				{
					OFFSET	6.421198 0.010146 -0.332128
					CHANNELS 3 Zrotation Yrotation Xrotation
					JOINT lForeArm
					{
						OFFSET	10.552783 0.025574 0.125508
						CHANNELS 3 Yrotation Zrotation Xrotation
						JOINT lHand
						{
							OFFSET	11.035963 0.319619 0.041520
							CHANNELS 3 Zrotation Yrotation Xrotation
							End Site
							{
								OFFSET 10.353753 0.000000 0.000000
							}
						}
					}
				}
			}
			JOINT rCollar
			{
				OFFSET	-0.599237 8.316447 0.784897
				CHANNELS 3 Yrotation Zrotation Xrotation
				JOINT rShldr
				{
					OFFSET	-6.421198 0.010146 -0.332128
					CHANNELS 3 Zrotation Yrotation Xrotation
					JOINT rForeArm
					{
						OFFSET	-10.552783 0.025574 0.125508
						CHANNELS 3 Yrotation Zrotation Xrotation
						JOINT rHand
						{
							OFFSET	-11.035963 0.319619 0.041520
							CHANNELS 3 Zrotation Yrotation Xrotation
							End Site
							{
								OFFSET -10.353753 0.000000 0.000000
							}
						}
					}
				}
			}
		}
	}
	JOINT lThigh
	{
		OFFSET	4.500466 -6.400484 -1.832696
		CHANNELS 3 Xrotation Zrotation Yrotation
		JOINT lShin
		{
			OFFSET	-1.359117 -18.918689 1.179887
			CHANNELS 3 Xrotation Zrotation Yrotation
			JOINT lFoot
			{
				OFFSET	-0.652380 -17.215186 -0.312137
				CHANNELS 3 Xrotation Yrotation Zrotation
				End Site
				{
					OFFSET 0.000000 0.000000 10.353752
				}
			}
		}
	}
	JOINT rThigh
	{
		OFFSET	-4.500466 -6.400484 -1.832696
		CHANNELS 3 Xrotation Zrotation Yrotation
		JOINT rShin
		{
			OFFSET	1.359117 -18.918689 1.179887
			CHANNELS 3 Xrotation Zrotation Yrotation
			JOINT rFoot
			{
				OFFSET	0.652380 -17.215186 -0.312137
				CHANNELS 3 Xrotation Yrotation Zrotation
				End Site
				{
					OFFSET 0.000000 0.000000 10.353752
				}
			}
		}
	}
}
MOTION
Frames:     10
Frame Time: 0.066667
34.950027 39.240002 19.259989 -8.574220 -8.154300 -95.411499 10.263700 -0.371094 -16.767599 0.000000 0.000000 0.000000 0.000000 0.000000 0.000000 -3.085940 -1.748050 22.929701 0.000000 0.000000 0.000000 0.000000 0.000000 0.000000 0.000000 0.000000 0.000000 -57.846699 14.041400 86.125198 -16.727699 13.360100 -5.272220 9.229320 -19.796700 -18.506201 0.000000 0.000000 0.000000 44.587002 -13.086300 45.164299 99.027397 -22.667101 51.916000 14.399100 14.546000 -12.468900 20.914225 -9.265180 6.743824 9.503498 -2.186974 -2.647698 -17.870720 8.563194 0.995867 -26.131426 -8.613082 9.636779 7.192529 -1.494289 2.667197 -11.335121 -0.540051 12.710004 
34.579983 40.049999 19.490049 -6.591800 -9.199220 -98.009399 10.742200 4.677730 -12.137900 0.000000 0.000000 0.000000 0.000000 0.000000 0.000000 -5.283200 -4.384770 20.771500 0.000000 0.000000 0.000000 0.000000 0.000000 0.000000 0.000000 0.000000 0.000000 -61.942699 16.915800 87.517700 -15.556700 13.502000 -4.113130 7.079570 -20.174200 -18.757799 0.000000 0.000000 0.000000 46.754799 -6.463790 43.083801 99.738800 -26.542000 53.805599 15.487300 18.800200 -17.131500 21.118357 -9.352362 7.797796 11.945639 -1.192075 -2.760021 -19.118271 10.206822 1.165427 -24.190407 -7.371850 6.849673 6.555471 -1.540205 7.923864 -8.970720 -1.656538 17.379948 
35.199966 40.709999 19.259989 -5.957030 -11.269500 -91.535103 12.119100 11.445300 -8.933610 0.000000 0.000000 0.000000 0.000000 0.000000 0.000000 -9.003910 -6.103520 9.501950 0.000000 0.000000 0.000000 0.000000 0.000000 0.000000 0.000000 0.000000 0.000000 -67.523903 19.546600 89.818100 -22.590200 19.983000 -5.415570 8.704700 -19.070101 -31.639000 0.000000 0.000000 0.000000 54.324100 -4.118710 36.139400 88.688797 -34.777500 45.689899 5.302450 21.704201 -31.347601 18.240128 -5.125776 9.047085 19.862213 1.052389 -5.172967 -18.623777 5.294178 -2.920414 -22.033972 -8.317987 2.758219 7.786334 -2.185581 11.378236 -8.876321 -1.032970 20.730450 
36.970043 40.919991 18.890049 -7.236330 -11.972700 -68.896500 16.503901 16.826200 -3.955080 0.000000 0.000000 0.000000 0.000000 0.000000 0.000000 -1.962890 -3.544920 -15.546900 0.000000 0.000000 0.000000 0.000000 0.000000 0.000000 0.000000 0.000000 0.000000 -72.854599 17.542801 82.503700 -37.565201 30.025400 -1.129800 11.155100 -16.268499 -35.841099 0.000000 0.000000 0.000000 67.859100 -2.078990 29.533400 49.548801 -43.735001 4.518430 -19.965900 -2.111290 -57.654400 5.330639 3.193044 3.237556 35.816254 4.698698 -10.681108 -14.326810 -0.516945 -9.352075 -19.992725 -12.964068 -1.533453 10.287812 -2.302378 11.226793 -12.479361 4.669107 24.523367 
36.539948 39.909992 20.010015 -6.777340 -3.759770 -38.935501 16.054701 18.505899 -2.558590 0.000000 0.000000 0.000000 0.000000 0.000000 0.000000 21.298800 6.035160 -21.269501 0.000000 0.000000 0.000000 0.000000 0.000000 0.000000 0.000000 0.000000 0.000000 -75.542000 17.721100 74.214897 -51.290100 35.647598 10.007100 10.270400 -15.847600 -32.324799 0.000000 0.000000 0.000000 72.536598 -6.856820 35.197899 19.198200 -31.257601 -18.771099 -26.299400 -13.654700 -60.008099 -13.004775 4.881392 -0.253952 46.050102 8.861799 -11.767004 -7.511652 -1.807327 -15.919279 -16.913832 -18.134357 -3.715076 12.841166 -2.851313 10.622557 -15.840803 6.576238 26.736017 
38.349995 40.149994 20.880041 -7.539060 1.328130 -23.369101 13.584000 11.767600 3.603520 0.000000 0.000000 0.000000 0.000000 0.000000 0.000000 33.847698 1.679690 -0.986042 0.000000 0.000000 0.000000 0.000000 0.000000 0.000000 0.000000 0.000000 0.000000 -76.219101 22.884899 65.519798 -53.881699 36.201199 15.065700 7.806760 -15.027500 -32.276901 0.000000 0.000000 0.000000 79.017700 -14.245800 39.131500 15.290600 -22.867500 -17.576799 -19.182899 -6.175960 -46.938099 -13.135434 1.813619 6.703956 38.635212 7.690923 -5.979729 -9.294022 -6.367143 -11.152060 -15.211523 -21.206322 -0.016482 18.137426 -3.912628 13.497277 -19.432058 9.486029 27.212259 
39.000004 41.229996 20.669964 -8.427730 8.085940 -9.599610 10.947300 -1.376950 6.122810 0.000000 0.000000 0.000000 0.000000 0.000000 0.000000 17.627001 -3.134770 5.644530 0.000000 0.000000 0.000000 0.000000 0.000000 0.000000 0.000000 0.000000 0.000000 -69.787804 27.148701 59.043999 -61.462799 37.831299 15.585700 0.658911 -14.012200 -29.364901 0.000000 0.000000 0.000000 86.882202 -14.655900 44.563599 12.829300 -15.257700 -15.876600 -11.265800 -4.335680 -43.498199 -7.370235 -3.817062 6.488809 24.173838 4.984200 -5.420632 -7.099903 -12.373725 -9.432549 -11.938364 -24.787104 4.819569 23.498766 -4.658331 19.309502 -21.031242 8.706225 25.826403 
38.589993 42.019997 20.239973 -6.660160 11.875000 -0.183537 5.126950 -10.791000 7.333990 0.000000 0.000000 0.000000 0.000000 0.000000 0.000000 3.378910 -3.623050 2.362660 0.000000 0.000000 0.000000 0.000000 0.000000 0.000000 0.000000 0.000000 0.000000 -63.885700 31.857000 54.027901 -70.504601 37.626499 15.812100 -5.869280 -11.733300 -22.858299 0.000000 0.000000 0.000000 85.500603 -16.621700 54.035301 14.222500 -12.154900 -4.200300 -5.521460 1.484750 -36.377602 -2.537333 -5.719433 1.962373 9.901999 2.468815 -6.807832 0.635234 -15.465837 -9.794009 -8.220657 -27.416794 2.798315 23.610985 -4.133915 19.630013 -20.094807 6.285991 24.160442 
38.330009 42.359997 20.139956 -7.822270 11.289100 2.462850 3.525390 -12.460900 7.890630 0.000000 0.000000 0.000000 0.000000 0.000000 0.000000 2.841800 -2.343750 -0.400790 0.000000 0.000000 0.000000 0.000000 0.000000 0.000000 0.000000 0.000000 0.000000 -64.955803 33.574902 49.972301 -71.329697 36.639099 13.389200 -7.288080 -10.134700 -21.933800 0.000000 0.000000 0.000000 81.870697 -16.733400 57.098801 16.464500 -12.614100 0.205808 -6.367880 2.399110 -32.810902 0.876772 -4.053211 -1.139261 5.486277 1.336881 -7.240733 2.926867 -15.196049 -10.126217 -4.569753 -27.325624 -2.953792 22.935808 -4.372785 20.512629 -19.238874 6.391209 22.988457 
38.059986 42.669994 20.049980 -9.355470 10.234400 2.597660 4.599610 -12.275400 6.911990 0.000000 0.000000 0.000000 0.000000 0.000000 0.000000 3.222660 -1.884770 -0.722978 0.000000 0.000000 0.000000 0.000000 0.000000 0.000000 0.000000 0.000000 0.000000 -65.117996 32.779598 52.703800 -69.550201 38.506100 10.152800 -8.300860 -8.588880 -22.362301 0.000000 0.000000 0.000000 81.656303 -14.543500 53.065102 18.891800 -14.196200 -1.508160 -6.858780 1.866680 -33.193199 3.274822 -2.056727 -2.120658 3.531884 0.583877 -7.805445 3.487937 -14.437219 -10.786366 -1.914983 -26.436277 -6.855220 22.095404 -4.440053 21.575054 -18.043114 7.683252 21.191439 
